<svg width="24" height="24" viewBox="0 0 24 24" fill="none" xmlns="http://www.w3.org/2000/svg">
<path fill-rule="evenodd" clip-rule="evenodd" d="M12 3.97641C9.16976 3.97641 6.75807 6.10337 6.42486 8.96412L6.07998 11.925C5.97774 12.8028 5.61171 13.6314 5.02704 14.3007C4.37924 15.0423 4.94333 16.1334 5.83012 16.1334H18.1699C19.0566 16.1334 19.6207 15.0423 18.9729 14.3007C18.3883 13.6314 18.0222 12.8028 17.92 11.925L17.5751 8.96412C17.2419 6.10337 14.8302 3.97641 12 3.97641ZM4.93439 8.79991C5.34955 5.23561 8.37211 2.51758 12 2.51758C15.6279 2.51758 18.6504 5.23561 19.0656 8.79991L19.4105 11.7608C19.4796 12.3545 19.7268 12.9106 20.1161 13.3562C21.5351 14.9805 20.4217 17.5922 18.1699 17.5922H5.83012C3.57827 17.5922 2.4649 14.9805 3.88391 13.3562C4.27319 12.9106 4.52036 12.3545 4.58951 11.7608L4.93439 8.79991ZM8.73678 18.1249C9.12465 17.9835 9.55692 18.1747 9.70228 18.5519C10.025 19.3894 10.9154 20.0236 12 20.0236C13.0846 20.0236 13.975 19.3894 14.2977 18.5519C14.4431 18.1747 14.8753 17.9835 15.2632 18.1249C15.6511 18.2662 15.8476 18.6866 15.7023 19.0639C15.1516 20.4928 13.6855 21.4824 12 21.4824C10.3145 21.4824 8.84834 20.4928 8.29769 19.0639C8.15232 18.6866 8.34891 18.2662 8.73678 18.1249Z" fill="white"/>
</svg>
