<svg width="18" height="20" viewBox="0 0 18 20" fill="none" xmlns="http://www.w3.org/2000/svg">
<path fill-rule="evenodd" clip-rule="evenodd" d="M8.99999 1.97641C6.16976 1.97641 3.75807 4.10337 3.42486 6.96412L3.07998 9.92502C2.97774 10.8028 2.61171 11.6314 2.02704 12.3007C1.37924 13.0423 1.94333 14.1334 2.83012 14.1334H15.1699C16.0566 14.1334 16.6207 13.0423 15.9729 12.3007C15.3883 11.6314 15.0222 10.8028 14.92 9.92503L14.5751 6.96412C14.2419 4.10337 11.8302 1.97641 8.99999 1.97641ZM1.93439 6.79991C2.34955 3.23561 5.37211 0.517578 8.99999 0.517578C12.6279 0.517578 15.6504 3.23561 16.0656 6.79991L16.4105 9.76082C16.4796 10.3545 16.7268 10.9106 17.1161 11.3562C18.5351 12.9805 17.4217 15.5922 15.1699 15.5922H2.83012C0.578266 15.5922 -0.5351 12.9805 0.883912 11.3562C1.27319 10.9106 1.52036 10.3545 1.58951 9.76082L1.93439 6.79991ZM5.73678 16.1249C6.12465 15.9835 6.55692 16.1747 6.70228 16.5519C7.025 17.3894 7.9154 18.0236 8.99999 18.0236C10.0846 18.0236 10.975 17.3894 11.2977 16.5519C11.4431 16.1747 11.8753 15.9835 12.2632 16.1249C12.6511 16.2662 12.8476 16.6866 12.7023 17.0639C12.1516 18.4928 10.6855 19.4824 8.99999 19.4824C7.31451 19.4824 5.84834 18.4928 5.29769 17.0639C5.15232 16.6866 5.34891 16.2662 5.73678 16.1249Z" fill="white"/>
</svg>
