<svg width="24" height="24" viewBox="0 0 24 24" fill="none" xmlns="http://www.w3.org/2000/svg">
<path d="M8.09468 15.9053L3.5 20.5M16.2542 15.7513L18.1301 13.8755C18.5547 13.4508 19.1306 13.2123 19.7312 13.2123C21.7484 13.2123 22.7587 10.7733 21.3323 9.34686L14.6531 2.66774C13.2267 1.24131 10.7877 2.25156 10.7877 4.26884C10.7877 4.86937 10.5492 5.44531 10.1245 5.86995L8.2487 7.74576C7.82406 8.1704 7.24812 8.40896 6.64759 8.40896C4.63031 8.40896 3.62005 10.8479 5.04648 12.2744L11.7256 18.9535C13.1521 20.3799 15.591 19.3697 15.591 17.3524C15.591 16.7519 15.8296 16.1759 16.2542 15.7513Z" stroke="white" stroke-width="1.66667" stroke-linecap="round"/>
</svg>
